<svg fill="#000000" xmlns="http://www.w3.org/2000/svg"  viewBox="0 0 48 48" width="24px" height="24px"><circle cx="24" cy="24" r="6.5" fill="none" stroke="#000000" stroke-miterlimit="10" stroke-width="3"/><path fill="none" stroke="#000000" stroke-linejoin="round" stroke-miterlimit="10" stroke-width="3" d="M28.527,39.098	c0.156-1.425,0.982-2.69,2.223-3.407s2.75-0.799,4.062-0.222l2.668,1.174c1.921-2.048,3.39-4.523,4.224-7.28l-2.365-1.734	C38.183,26.781,37.5,25.434,37.5,24s0.683-2.781,1.839-3.629l2.365-1.734c-0.834-2.757-2.303-5.232-4.224-7.28l-2.668,1.174	c-1.312,0.577-2.821,0.495-4.062-0.222s-2.067-1.982-2.223-3.407l-0.318-2.902C26.855,5.684,25.45,5.5,24,5.5	s-2.855,0.184-4.209,0.499l-0.318,2.902c-0.156,1.425-0.982,2.69-2.223,3.407s-2.75,0.799-4.062,0.222l-2.668-1.174	c-1.921,2.048-3.39,4.523-4.224,7.28l2.365,1.734C9.817,21.219,10.5,22.566,10.5,24s-0.683,2.781-1.839,3.629l-2.365,1.734	c0.834,2.757,2.302,5.232,4.224,7.28l2.668-1.174c1.312-0.577,2.821-0.495,4.062,0.222s2.067,1.982,2.223,3.407l0.318,2.902	C21.145,42.316,22.55,42.5,24,42.5s2.855-0.184,4.209-0.499L28.527,39.098z"/></svg>